<?xml version="1.0" ?><!DOCTYPE svg  PUBLIC '-//W3C//DTD SVG 1.1//EN'  'http://www.w3.org/Graphics/SVG/1.1/DTD/svg11.dtd'><svg enable-background="new 0 0 128 128" height="128px" version="1.1" viewBox="0 0 128 128" width="128px" xml:space="preserve" xmlns="http://www.w3.org/2000/svg" xmlns:xlink="http://www.w3.org/1999/xlink"><g id="Layer_2"/><g id="Layer_1"><g><path d="    M69.664,34.622c1.11,1.121,20.965,21.163,28.806,29.075c1.939,1.959,3.07,1.006,2.963-2.161    c-0.233-6.951-0.637-18.71-0.811-22.907c-0.253-6.109-3.868-6.275-7.025-6.415c-2.194-0.098-14.646-0.649-22.03-0.978    C68.331,31.094,68.28,33.226,69.664,34.622z" fill="none" stroke="#231F20" stroke-linecap="round" stroke-linejoin="round" stroke-miterlimit="10" stroke-width="5"/><path d="    M45.811,89.167c0,0-5.583,8.377-19.251,6.086" fill="none" stroke="#231F20" stroke-linecap="round" stroke-linejoin="round" stroke-miterlimit="10" stroke-width="5"/><path d="    M95.27,60.47L61.406,94.212c-2.913,2.914-7.139,3.412-9.437,1.115L38.657,82.014c-2.298-2.299-1.799-6.521,1.114-9.436    l34.159-33.647L95.27,60.47z" fill="none" stroke="#231F20" stroke-linecap="round" stroke-linejoin="round" stroke-miterlimit="10" stroke-width="5"/><polygon fill="#231F20" points="58.629,96.657 50.077,96.657 50.077,62.802 58.629,53.691   "/><polygon fill="#231F20" points="76.954,78.296 68.402,85.917 68.402,45.5 76.954,39.031   "/></g></g></svg>