<?xml version="1.0" ?><svg style="enable-background:new 0 0 44 44;" version="1.1" viewBox="0 0 44 44" xml:space="preserve" xmlns="http://www.w3.org/2000/svg" xmlns:xlink="http://www.w3.org/1999/xlink"><g id="ghost"/><g id="bat"/><g id="monster"/><g id="jason"/><g id="grave"/><g id="skull"/><g id="cauldron"/><g id="cleaver"/><g id="candle"/><g id="cat"/><g id="owl"/><g id="pumkin"/><g id="eye"/><g id="vampire"/><g id="finger"/><g id="leaf"/><g id="coffin"/><g id="broom"/><g id="moon"/><g id="poison"><g><g><path d="M19,24c-1.654,0-3-1.346-3-3s1.346-3,3-3s3,1.346,3,3S20.654,24,19,24z M19,20c-0.552,0-1,0.448-1,1s0.448,1,1,1     s1-0.448,1-1S19.552,20,19,20z"/></g><circle cx="23" cy="16" r="1"/><circle cx="20" cy="33" r="1"/><circle cx="22" cy="39" r="1"/><circle cx="26" cy="34" r="2"/><path d="M30,12.5V12c1.654,0,3-1.346,3-3s-1.346-3-3-3h-0.487l0.448-2.686C29.986,3.161,30,3.005,30,2.847    C30,1.277,28.723,0,27.153,0H16.847C15.277,0,14,1.277,14,2.847c0,0.158,0.014,0.314,0.039,0.468L14.487,6H14    c-1.654,0-3,1.346-3,3s1.346,3,3,3v0.5c0,1.397-0.462,2.782-1.3,3.899C11.604,17.861,11,19.673,11,21.5V41c0,1.654,1.346,3,3,3h16    c1.654,0,3-1.346,3-3V21.5c0-1.827-0.604-3.639-1.7-5.101C30.462,15.282,30,13.897,30,12.5z M16.012,2.986    C16.004,2.94,16,2.894,16,2.847C16,2.38,16.38,2,16.847,2h10.307C27.62,2,28,2.38,28,2.847c0,0.047-0.004,0.094-0.012,0.14    L27.486,6H16.514L16.012,2.986z M13,9c0-0.552,0.448-1,1-1h16c0.552,0,1,0.448,1,1s-0.448,1-1,1H14C13.448,10,13,9.552,13,9z     M31,41c0,0.552-0.448,1-1,1H14c-0.552,0-1-0.448-1-1V28.963c1.235,0.684,2.616,1.034,4,1.034c2.062,0,4.125-0.759,5.695-2.278    c2.278-2.205,5.917-2.27,8.305-0.241V41z M31,25.037c-3.076-1.704-7.071-1.295-9.695,1.245c-2.278,2.205-5.917,2.27-8.305,0.241    V21.5c0-1.397,0.462-2.782,1.3-3.899c1.097-1.462,1.7-3.273,1.7-5.101V12h12v0.5c0,1.827,0.604,3.639,1.7,5.101    c0.838,1.117,1.3,2.502,1.3,3.899V25.037z"/></g></g><g id="sweet"/><g id="zombie"/><g id="hat"/><g id="candy"/></svg>