<?xml version="1.0" ?><!DOCTYPE svg  PUBLIC '-//W3C//DTD SVG 1.1//EN'  'http://www.w3.org/Graphics/SVG/1.1/DTD/svg11.dtd'><svg enable-background="new 0 0 91 91" height="91px" id="Layer_1" version="1.1" viewBox="0 0 91 91" width="91px" xml:space="preserve" xmlns="http://www.w3.org/2000/svg" xmlns:xlink="http://www.w3.org/1999/xlink"><g><path d="M23.716,89.041c0.295,0.841,1.013,1.463,1.888,1.634c0.161,0.031,0.322,0.047,0.483,0.047c0.712,0,1.399-0.304,1.881-0.848   l11.944-13.495c0.032-0.036,0.053-0.078,0.083-0.115c0.807,0.211,1.97,0.389,3.659,0.482V86c0,1.389,1.125,2.514,2.514,2.514   c1.387,0,2.512-1.125,2.512-2.514v-9.234c1.418-0.066,2.402-0.191,3.09-0.338l11.905,13.447c0.481,0.544,1.169,0.847,1.882,0.847   c0.16,0,0.322-0.016,0.482-0.047c0.875-0.171,1.593-0.793,1.888-1.634l8.89-25.322c0.293-0.83,0.127-1.754-0.434-2.433   L63.449,45.641c0.294-2.633,0.467-5.359,0.467-8.153c0-8.673-5.554-37.238-17.817-37.238c-12.108,0-18.353,26.219-18.353,37.405   c0,2.782,0.154,5.458,0.418,8.019L15.261,61.286c-0.561,0.679-0.726,1.603-0.434,2.433L23.716,89.041z M48.679,71.73v-8.844   c0-1.388-1.125-2.513-2.512-2.513c-1.389,0-2.514,1.125-2.514,2.513v8.82c-1.063-0.07-1.85-0.174-2.276-0.271   c-1.678-2.398-8.606-15.4-8.606-33.781c0-4.904,1.122-11.268,2.911-17.055c2.698,1.503,6.269,2.156,9.872,2.156   c3.775,0,7.58-0.72,10.453-1.921c1.775,5.987,2.884,12.4,2.884,16.654c0,17.284-6.733,31.233-8.479,34.086   C50.035,71.629,49.452,71.688,48.679,71.73z M71.604,63.394l-7.004,19.948l-9.111-10.293c-0.042-0.047-0.092-0.082-0.135-0.125   c2.112-3.877,5.234-11.355,7.068-20.639L71.604,63.394z M46.099,5.275c3.047,0,6.002,4.713,8.304,10.775   c-4.366,1.968-13.435,2.465-16.994-0.327C39.834,9.747,42.949,5.275,46.099,5.275z M29.146,52.373   c1.826,9.572,5.042,16.835,7.197,20.496c-0.065,0.06-0.135,0.112-0.194,0.18L27.04,83.34l-7.001-19.946L29.146,52.373z"/><path d="M45.825,24.531c-5.684,0-10.308,4.62-10.308,10.299c0,5.681,4.624,10.302,10.308,10.302   c5.676,0,10.295-4.622,10.295-10.302C56.12,29.151,51.501,24.531,45.825,24.531z M45.825,40.106c-2.913,0-5.282-2.367-5.282-5.277   c0-2.908,2.369-5.273,5.282-5.273c2.905,0,5.27,2.366,5.27,5.273C51.095,37.739,48.73,40.106,45.825,40.106z"/></g></svg>