<?xml version="1.0" ?><!DOCTYPE svg  PUBLIC '-//W3C//DTD SVG 1.1//EN'  'http://www.w3.org/Graphics/SVG/1.1/DTD/svg11.dtd'><svg enable-background="new 0 0 91 91" height="91px" id="Layer_1" version="1.1" viewBox="0 0 91 91" width="91px" xml:space="preserve" xmlns="http://www.w3.org/2000/svg" xmlns:xlink="http://www.w3.org/1999/xlink"><g><path d="M18.528,79.006H38.94c1.474,0.902,3.037,1.535,4.672,1.865V88c0,1.387,1.125,2.512,2.512,2.512   c1.389,0,2.514-1.125,2.514-2.512v-7.082c1.721-0.314,3.365-0.966,4.91-1.912h20.378c2.72,0,4.022-1.21,4.635-2.225   c1.448-2.396,0.051-5.314-0.226-5.838l-3.488-6.908v-31.32c0-3.739-2.953-6.794-6.646-6.974   C66.763,11.684,53.587,0.459,46.671,0.459c-8.088,0-20.24,11.128-21.54,25.302c-0.218-0.021-0.438-0.033-0.66-0.033   c-3.856,0-6.993,3.133-6.993,6.985v31.575l-3.342,6.618c-0.295,0.561-1.691,3.479-0.244,5.874   C14.505,77.796,15.807,79.006,18.528,79.006z M18.323,73.976c0.059-0.244,0.162-0.536,0.278-0.767l8.392-16.618   c0.891,6.983,3.238,13.038,6.539,17.39H18.528C18.452,73.98,18.384,73.979,18.323,73.976z M46.124,62.011   c-1.387,0-2.512,1.125-2.512,2.513V75.67c-6.721-2.264-11.988-12.971-11.988-25.396c0-14.007,6.695-25.841,14.62-25.841   c7.882,0,14.546,11.706,14.618,25.612v0.229c0,0.011,0.003,0.02,0.003,0.029c-0.009,12.56-5.398,23.358-12.228,25.444V64.523   C48.638,63.136,47.513,62.011,46.124,62.011z M73.926,73.98h-14.97c3.293-4.34,5.636-10.373,6.531-17.332l8.373,16.58   c0.11,0.219,0.211,0.506,0.27,0.748C74.069,73.979,74.001,73.98,73.926,73.98z M69.821,32.715v21.369l-3.934-7.789v-13.58   c0-1.084,0.885-1.965,1.971-1.965C68.94,30.75,69.821,31.631,69.821,32.715z M46.671,5.485c4.459,0,16.113,9.894,16.615,21.952   c-0.876,0.758-1.559,1.729-1.973,2.832c-3.576-6.678-8.953-10.86-15.069-10.86c-6.173,0-11.595,4.258-15.17,11.045   c-0.247-0.72-0.608-1.385-1.063-1.977c0.007-0.08,0.024-0.157,0.024-0.239C30.036,15.786,41.05,5.485,46.671,5.485z M22.503,32.713   c0-1.081,0.883-1.959,1.968-1.959c1.081,0,1.961,0.879,1.961,1.959v13.843l-3.929,7.78V32.713z"/><path d="M52.879,45.93c0.587,0,3.512-0.207,3.512-4.308c0-5.419-4.409-9.828-9.827-9.828c-5.42,0-9.828,4.409-9.828,9.828   c0,1.143,0.199,2.003,0.626,2.706c0.618,1.018,1.669,1.602,2.885,1.602h0.001c1.03,0,1.999-0.414,3.024-0.852   c1.034-0.442,2.208-0.943,3.292-0.943c1.082,0,2.254,0.501,3.289,0.943C50.878,45.516,51.848,45.93,52.879,45.93z M41.985,40.166   c0.618-1.939,2.437-3.347,4.578-3.347c2.141,0,3.959,1.409,4.576,3.348c-1.243-0.512-2.809-1.058-4.576-1.058   C44.795,39.109,43.229,39.655,41.985,40.166z"/></g></svg>