<?xml version="1.0" ?><!DOCTYPE svg  PUBLIC '-//W3C//DTD SVG 1.1//EN'  'http://www.w3.org/Graphics/SVG/1.1/DTD/svg11.dtd'><svg enable-background="new 0 0 24 24" height="24px" id="Layer_1" version="1.1" viewBox="0 0 24 24" width="24px" xml:space="preserve" xmlns="http://www.w3.org/2000/svg" xmlns:xlink="http://www.w3.org/1999/xlink"><g><path d="M23.4,18.3L20,14.9c-0.3-5.4-2.7-10.2-6.4-13.6c-0.5-0.5-1-0.9-1.6-1.3c-0.5,0.4-1.1,0.9-1.6,1.3C6.7,4.8,4.3,9.6,4,14.9   l-3.4,3.4c-0.3,0.3-0.6,0.5-0.6,1V23c0,0.6,0.4,1,1,1h4.7H7h10h1.3H23c0.6,0,1-0.5,1-1v-3.6C24,18.8,23.7,18.6,23.4,18.3z M6.3,19   h11.5c-0.2,1-0.4,2-0.8,3H7.1C6.7,21,6.4,20,6.3,19z M17.9,18H6.1C6.1,17,6,17,6,16h12C18,17,17.9,17,17.9,18z M12,2.6   c3.4,3.1,5.7,7.4,5.9,12.4H6.1C6.3,10,8.6,5.7,12,2.6z M1,23v-3.5l3-3C4.1,18.8,4.5,21,5.3,23H1z M23,23h-4.3   c0.8-2,1.2-4.2,1.3-6.5l3,3V23z"/><path d="M12,13c1.7,0,3-1.3,3-3s-1.3-3-3-3s-3,1.3-3,3S10.3,13,12,13z M12,8c1.1,0,2,0.9,2,2s-0.9,2-2,2s-2-0.9-2-2S10.9,8,12,8z"/></g></svg>