<?xml version="1.0" ?><svg id="Layer_1" style="enable-background:new 0 0 24 24;" version="1.1" viewBox="0 0 24 24" xml:space="preserve" xmlns="http://www.w3.org/2000/svg" xmlns:xlink="http://www.w3.org/1999/xlink"><g id="XMLID_1374_"><path d="   M1.939,22.061L1.939,22.061c-0.586-0.586-0.586-1.536,0-2.121l14-14c0.586-0.586,1.536-0.586,2.121,0l0,0   c0.586,0.586,0.586,1.536,0,2.121l-14,14C3.475,22.646,2.525,22.646,1.939,22.061z" id="XMLID_46_" style="fill:none;stroke:#303C42;stroke-linecap:round;stroke-linejoin:round;stroke-miterlimit:10;"/><line id="XMLID_45_" style="fill:none;stroke:#303C42;stroke-linecap:round;stroke-linejoin:round;stroke-miterlimit:10;" x1="14.879" x2="17" y1="7" y2="9.121"/><polygon id="XMLID_44_" points="   21.086,5.424 20.732,4.364 19.672,4.01 20.732,3.657 21.086,2.596 21.439,3.657 22.5,4.01 21.439,4.364  " style="fill:none;stroke:#303C42;stroke-linecap:round;stroke-linejoin:round;stroke-miterlimit:10;"/><polygon id="XMLID_43_" points="   17.172,3.157 16.964,2.536 16.343,2.328 16.964,2.121 17.172,1.5 17.379,2.121 18,2.328 17.379,2.536  " style="fill:none;stroke:#303C42;stroke-linecap:round;stroke-linejoin:round;stroke-miterlimit:10;"/><polygon id="XMLID_42_" points="   20.672,10.5 20.464,9.879 19.843,9.672 20.464,9.464 20.672,8.843 20.879,9.464 21.5,9.672 20.879,9.879  " style="fill:none;stroke:#303C42;stroke-linecap:round;stroke-linejoin:round;stroke-miterlimit:10;"/></g></svg>