<?xml version="1.0" ?>
<svg height="256px" version="1.1" viewBox="0 0 64 64" width="256px" xmlns="http://www.w3.org/2000/svg" xmlns:sketch="http://www.bohemiancoding.com/sketch/ns" xmlns:xlink="http://www.w3.org/1999/xlink">
    <title/>
    <desc/>
    <defs/>
    <circle cx="32" cy="32" r="24" fill="#096eb6"/>
    <line x1="18" y1="42" x2="46" y2="42" stroke="#fff" stroke-width="2" stroke-linecap="round"/>
    <g fill="none" fill-rule="evenodd" id="miu" stroke="none" stroke-width="1">
        <g id="Artboard-1" transform="translate(-807.000000, -353.000000)">
            <path d="M828,373.002462 L828,391.997538 C828,392.551183 828.450975,393 828.990778,393 L832.009222,393 C832.556414,393 833,392.560542 833,391.997538 L833,373.002462 C833,372.448817 832.549025,372 832.009222,372 L828.990778,372 C828.443586,372 828,372.439458 828,373.002462 Z M834,373.002462 L834,391.997538 C834,392.551183 834.450975,393 834.990778,393 L838.009222,393 C838.556414,393 839,392.560542 839,391.997538 L839,373.002462 C839,372.448817 838.549025,372 838.009222,372 L834.990778,372 C834.443586,372 834,372.439458 834,373.002462 Z M839.627042,373.97313 L844.543329,392.320965 C844.686623,392.855744 845.238394,393.172548 845.759803,393.032837 L848.675397,392.251606 C849.203943,392.109982 849.518674,391.570689 849.372958,391.02687 L844.456671,372.679035 C844.313377,372.144256 843.761606,371.827452 843.240197,371.967163 L840.324603,372.748394 C839.796057,372.890018 839.481326,373.429311 839.627042,373.97313 Z" fill="#fff" id="editor-books-library-collection-glyph"/>
        </g>
    </g>
</svg>
